HIERARCHY
ROOT Hips
{
    OFFSET 0.000 93.594 0.000
    CHANNELS 6 Xposition Yposition Zposition Yrotation Xrotation Zrotation
    JOINT RightHip
    {
        OFFSET -9.500 -1.594 0.000
        CHANNELS 3 Yrotation Xrotation Zrotation
        JOINT RightKnee
        {
            OFFSET 0.000 -42.000 0.000
            CHANNELS 3 Yrotation Xrotation Zrotation
            JOINT RightAnkle
            {
                OFFSET 0.000 -42.000 0.000
                CHANNELS 3 Yrotation Xrotation Zrotation
                End Site
                {
                    OFFSET 0.000 -8.000 17.500
                }
            }
        }
    }
    JOINT LeftHip
    {
        OFFSET 9.500 -1.594 0.000
        CHANNELS 3 Yrotation Xrotation Zrotation
        JOINT LeftKnee
        {
            OFFSET 0.000 -42.000 0.000
            CHANNELS 3 Yrotation Xrotation Zrotation
            JOINT LeftAnkle
            {
                OFFSET 0.000 -42.000 0.000
                CHANNELS 3 Yrotation Xrotation Zrotation
                End Site
                {
                    OFFSET 0.000 -8.000 17.500
                }
            }
        }
    }
    JOINT Chest
    {
        OFFSET 0.000 14.348 0.000
        CHANNELS 3 Yrotation Xrotation Zrotation
        JOINT Chest2
        {
            OFFSET 0.000 9.746 0.000
            CHANNELS 3 Yrotation Xrotation Zrotation
            JOINT Chest3
            {
                OFFSET 0.000 10.149 0.000
                CHANNELS 3 Yrotation Xrotation Zrotation
                JOINT Chest4
                {
                    OFFSET 0.000 9.746 0.000
                    CHANNELS 3 Yrotation Xrotation Zrotation
                    JOINT Neck
                    {
                        OFFSET 0.000 10.417 0.000
                        CHANNELS 3 Yrotation Xrotation Zrotation
                        JOINT Head
                        {
                            OFFSET 0.000 9.000 0.000
                            CHANNELS 3 Yrotation Xrotation Zrotation
                            End Site
                            {
                                OFFSET 0.000 16.000 0.000
                            }
                        }
                    }
                    JOINT RightCollar
                    {
                        OFFSET -3.200 6.945 0.000
                        CHANNELS 3 Yrotation Xrotation Zrotation
                        JOINT RightShoulder
                        {
                            OFFSET -12.800 0.000 0.000
                            CHANNELS 3 Yrotation Xrotation Zrotation
                            JOINT RightElbow
                            {
OFFSET -0 -27 0.000
						CHANNELS 3 Xrotation Yrotation Zrotation
                                JOINT RightWrist
                                {
OFFSET -0 -26 0.000
						CHANNELS 3 Xrotation Yrotation Zrotation
                                    JOINT RightFinger0
                                    {
OFFSET -0.196 -2.56 3.210
						CHANNELS 3 Xrotation Yrotation Zrotation
                                        JOINT RightFinger01
                                        {
OFFSET -0 -3.788 0.000
						CHANNELS 3 Xrotation Yrotation Zrotation
                                            JOINT RightFinger0Nub
                                            {
OFFSET -0 -2.631 0.000
						CHANNELS 3 Xrotation Yrotation Zrotation
                                                End Site
                                                {
OFFSET 0 -2.256 0
                                                }
                                            }
                                        }
                                    }
                                    JOINT RightFinger1
                                    {
OFFSET -0.523 -3.316 2.035
						CHANNELS 3 Xrotation Yrotation Zrotation
                                        JOINT RightFinger11
                                        {
OFFSET 0.094 -5.366 1.028
						CHANNELS 3 Xrotation Yrotation Zrotation
                                            JOINT RightFinger12
                                            {
OFFSET -0 -3.723 0.000
						CHANNELS 3 Xrotation Yrotation Zrotation
                                                JOINT RightFinger1Nub
                                                {
OFFSET -0 -2.111 0.000
						CHANNELS 3 Xrotation Yrotation Zrotation
                                                    End Site
                                                    {
OFFSET 0 -1.857 0
                                                    }
                                                }
                                            }
                                        }
                                    }
                                    JOINT RightFinger2
                                    {
OFFSET -0.532 -3.479 0.778
						CHANNELS 3 Xrotation Yrotation Zrotation
                                        JOINT RightFinger21
                                        {
OFFSET 0.086 -5.322 0.323
						CHANNELS 3 Xrotation Yrotation Zrotation
                                            JOINT RightFinger22
                                            {
OFFSET -0 -4.062 0.000
						CHANNELS 3 Xrotation Yrotation Zrotation
                                                JOINT RightFinger2Nub
                                                {
OFFSET -0 -2.547 0.000
						CHANNELS 3 Xrotation Yrotation Zrotation
                                                    End Site
                                                    {
OFFSET 0 -2.031 0
                                                    }
                                                }
                                            }
                                        }
                                    }
                                    JOINT RightFinger3
                                    {
OFFSET -0.553 -3.461 -0.133
						CHANNELS 3 Xrotation Yrotation Zrotation
                                        JOINT RightFinger31
                                        {
OFFSET 0.023 -4.767 -0.493
						CHANNELS 3 Xrotation Yrotation Zrotation
                                            JOINT RightFinger32
                                            {
OFFSET -0 -3.541 0.000
						CHANNELS 3 Xrotation Yrotation Zrotation
                                                JOINT RightFinger3Nub
                                                {
OFFSET -0 -2.456 0.000
						CHANNELS 3 Xrotation Yrotation Zrotation
                                                    End Site
                                                    {
OFFSET 0 -1.91 0
                                                    }
                                                }
                                            }
                                        }
                                    }
                                    JOINT RightFinger4
                                    {
OFFSET -0.483 -3.251 -1.236
						CHANNELS 3 Xrotation Yrotation Zrotation
                                        JOINT RightFinger41
                                        {
OFFSET 0.023 -4.259 -1.122
						CHANNELS 3 Xrotation Yrotation Zrotation
                                            JOINT RightFinger42
                                            {
OFFSET -0 -2.835 0.000
						CHANNELS 3 Xrotation Yrotation Zrotation
                                                JOINT RightFinger4Nub
                                                {
OFFSET -0 -1.792 0.000
						CHANNELS 3 Xrotation Yrotation Zrotation
                                                    End Site
                                                    {
OFFSET 0 -1.692 0
                                                    }
                                                }
                                            }
                                        }
                                    }
                                }
                            }
                        }
                    }
                    JOINT LeftCollar
                    {
                        OFFSET 3.200 6.945 0.000
                        CHANNELS 3 Yrotation Xrotation Zrotation
                        JOINT LeftShoulder
                        {
                            OFFSET 12.800 0.000 0.000
                            CHANNELS 3 Yrotation Xrotation Zrotation
                            JOINT LeftElbow
                            {
OFFSET -0 -27 0.000
						CHANNELS 3 Xrotation Yrotation Zrotation
                                JOINT LeftWrist
                                {
OFFSET -0 -26 0.000
						CHANNELS 3 Xrotation Yrotation Zrotation
                                    JOINT LeftFinger0
                                    {
OFFSET -0.196 -2.56 3.210
						CHANNELS 3 Xrotation Yrotation Zrotation
                                        JOINT LeftFinger01
                                        {
OFFSET -0 -3.788 0.000
						CHANNELS 3 Xrotation Yrotation Zrotation
                                            JOINT LeftFinger0Nub
                                            {
OFFSET -0 -2.631 0.000
						CHANNELS 3 Xrotation Yrotation Zrotation
                                                End Site
                                                {
OFFSET 0 -2.256 0
                                                }
                                            }
                                        }
                                    }
                                    JOINT LeftFinger1
                                    {
OFFSET -0.523 -3.316 2.035
						CHANNELS 3 Xrotation Yrotation Zrotation
                                        JOINT LeftFinger11
                                        {
OFFSET 0.094 -5.366 1.028
						CHANNELS 3 Xrotation Yrotation Zrotation
                                            JOINT LeftFinger12
                                            {
OFFSET -0 -3.723 0.000
						CHANNELS 3 Xrotation Yrotation Zrotation
                                                JOINT LeftFinger1Nub
                                                {
OFFSET -0 -2.111 0.000
						CHANNELS 3 Xrotation Yrotation Zrotation
                                                    End Site
                                                    {
OFFSET 0 -1.857 0
                                                    }
                                                }
                                            }
                                        }
                                    }
                                    JOINT LeftFinger2
                                    {
OFFSET -0.532 -3.479 0.778
						CHANNELS 3 Xrotation Yrotation Zrotation
                                        JOINT LeftFinger21
                                        {
OFFSET 0.086 -5.322 0.323
						CHANNELS 3 Xrotation Yrotation Zrotation
                                            JOINT LeftFinger22
                                            {
OFFSET -0 -4.062 0.000
						CHANNELS 3 Xrotation Yrotation Zrotation
                                                JOINT LeftFinger2Nub
                                                {
OFFSET -0 -2.547 0.000
						CHANNELS 3 Xrotation Yrotation Zrotation
                                                    End Site
                                                    {
OFFSET 0 -2.031 0
                                                    }
                                                }
                                            }
                                        }
                                    }
                                    JOINT LeftFinger3
                                    {
OFFSET -0.553 -3.461 -0.133
						CHANNELS 3 Xrotation Yrotation Zrotation
                                        JOINT LeftFinger31
                                        {
OFFSET 0.023 -4.767 -0.493
						CHANNELS 3 Xrotation Yrotation Zrotation
                                            JOINT LeftFinger32
                                            {
OFFSET -0 -3.541 0.000
						CHANNELS 3 Xrotation Yrotation Zrotation
                                                JOINT LeftFinger3Nub
                                                {
OFFSET -0 -2.456 0.000
						CHANNELS 3 Xrotation Yrotation Zrotation
                                                    End Site
                                                    {
OFFSET 0 -1.91 0
                                                    }
                                                }
                                            }
                                        }
                                    }
                                    JOINT LeftFinger4
                                    {
OFFSET -0.483 -3.251 -1.236
						CHANNELS 3 Xrotation Yrotation Zrotation
                                        JOINT LeftFinger41
                                        {
OFFSET 0.023 -4.259 -1.122
						CHANNELS 3 Xrotation Yrotation Zrotation
                                            JOINT LeftFinger42
                                            {
OFFSET -0 -2.835 0.000
						CHANNELS 3 Xrotation Yrotation Zrotation
                                                JOINT LeftFinger4Nub
                                                {
OFFSET -0 -1.792 0.000
						CHANNELS 3 Xrotation Yrotation Zrotation
                                                    End Site
                                                    {
OFFSET 0 -1.692 0
                                                    }
                                                }
                                            }
                                        }
                                    }
                                }
                            }
                        }
                    }
                }
            }
        }
    }
}
MOTION

Frames: 10
Frame Time: 0.017
-114.42 92.93 -29.09 -139.64 -0.29 -7.69 -4.55 -16.65 2.61 -0.00 28.42 -0.00 -6.60 -8.11 6.23 -8.23 -8.16 17.38 -0.00 33.00 -0.00 0.27 -13.76 -10.66 -8.02 16.08 0.83 -1.96 3.98 0.42 -3.17 6.42 0.61 -0.11 -1.74 0.91 -0.14 -2.14 1.02 -13.71 -29.85 21.76 21.79 1.58 -21.05 2.99 -65.63 14.62 -22.38 55.98 2.58 -4.84 15.62 9.55 -63.09 -0 22.45 -15.63 -0 -7.38 -10.99 -0 0.00 0 -0 0.00 -15 -0 3.28 0 -0 9.53 0 -0 4.76 0 -0 0.00 0 -0 -0.87 0 -0 -0.87 0 -0 -0.87 0 -0 0.00 15 -0 12.10 0 -0 12.10 0 -0 12.10 0 -0 0.00 25 -0 51.67 0 -0 51.67 0 -0 51.67 -4.14 10.61 7.68 -50.44 -36.87 39.9 1.32 -36.54 3.14 4.90 -2.2 -11.07 -13.47 0 -31.65 -16.89 0 12.56 15.13 0 0.00 0.00 0 0.00 -15.00 0 -20.27 0.00 0 -6.12 0.00 0 -3.06 0.00 0 0.00 0.00 0 -15.04 0.00 0 -15.04 0.00 0 -15.04 0.00 0 0.00 15.00 0 -20.58 0.00 0 -20.58 0.00 0 -20.58 0.00 0 0.00 25.00 0 -17.71 0.00 0 -17.71 0.00 0 -17.71 
-115.09 92.88 -29.94 -139.64 -0.29 -7.69 -3.38 -16.69 2.54 0.00 28.54 0.00 -7.74 -8.32 6.53 -7.81 -7.64 17.28 0.00 33.21 0.00 0.36 -14.17 -10.42 -7.78 16.37 0.78 -1.90 4.05 0.40 -3.07 6.53 0.59 -0.12 -1.78 0.92 -0.13 -2.80 1.17 -14.30 -30.08 22.01 21.92 1.54 -20.39 4.63 -66.23 13.65 -19.78 57.49 3.51 -7.58 14.47 12.56 -62.91 -0 23.72 -15.29 -0 -6.11 -14.66 -0 0.00 0 -0 0.00 -15 -0 4.00 0 -0 9.22 0 -0 4.61 0 -0 0.00 0 -0 0.35 0 -0 0.35 0 -0 0.35 0 -0 0.00 15 -0 8.87 0 -0 8.87 0 -0 8.87 0 -0 0.00 25 -0 52.91 0 -0 52.91 0 -0 52.91 -3.68 9.02 7.34 -51.70 -35.33 39.94 3.41 -39.1 4.82 4.79 -2.25 -10.78 -13.59 0 -31.87 -17.13 0 12.35 14.90 0 0.00 0.00 0 0.00 -15.00 0 -20.71 0.00 0 -6.46 0.00 0 -3.23 0.00 0 0.00 0.00 0 -15.41 0.00 0 -15.41 0.00 0 -15.41 0.00 0 0.00 15.00 0 -20.61 0.00 0 -20.61 0.00 0 -20.61 0.00 0 0.00 25.00 0 -17.56 0.00 0 -17.56 0.00 0 -17.56 
-115.77 92.82 -30.65 -139.64 -0.29 -7.69 -2.31 -16.66 2.45 -0.00 28.52 -0.00 -8.85 -8.46 6.83 -7.46 -7.08 17.08 0.00 33.27 0.00 0.83 -14.65 -10.35 -7.53 16.67 0.71 -1.84 4.13 0.38 -2.97 6.65 0.55 -0.13 -1.83 0.93 -0.13 -3.56 1.34 -14.93 -30.25 22.36 22.69 1.64 -19.31 6.45 -66.23 11.99 -17.51 59.81 3.64 -8.94 13.04 15.38 -62.6 -0 24.52 -14.67 -0 -5.30 -17.42 -0 0.00 0 -0 0.00 -15 -0 4.69 0 -0 8.78 0 -0 4.39 0 -0 0.00 0 -0 1.54 0 -0 1.54 0 -0 1.54 0 -0 0.00 15 -0 5.84 0 -0 5.84 0 -0 5.84 0 -0 0.00 25 -0 54.28 0 -0 54.28 0 -0 54.28 -3.39 7.30 6.82 -51.87 -33.82 39.48 4.78 -42.09 6.37 5.03 -2.62 -10.71 -13.75 0 -32.01 -17.46 0 12.20 14.59 0 0.00 0.00 0 0.00 -15.00 0 -21.15 0.00 0 -6.73 0.00 0 -3.36 0.00 0 0.00 0.00 0 -15.66 0.00 0 -15.66 0.00 0 -15.66 0.00 0 0.00 15.00 0 -20.61 0.00 0 -20.61 0.00 0 -20.61 0.00 0 0.00 25.00 0 -17.34 0.00 0 -17.34 0.00 0 -17.34 
-116.40 92.73 -31.06 -139.23 -0.61 -7.87 -2.30 -16.16 2.52 0.00 28.37 0.00 -9.27 -8.45 7.01 -7.37 -6.46 16.93 -0.00 33.51 -0.00 1.24 -15.27 -9.96 -6.80 17.25 0.41 -1.66 4.27 0.29 -2.70 6.87 0.41 -0.18 -1.90 0.97 -0.17 -4.72 1.63 -16.81 -30.01 23.36 22.54 1.36 -17.56 9.48 -66.09 9.45 -16.58 62.84 4.18 -8.48 11.47 18.08 -62.28 -0 24.82 -14.01 -0 -5.00 -19.65 -0 0.00 0 -0 0.00 -15 -0 4.43 0 -0 7.91 0 -0 3.96 0 -0 0.00 0 -0 2.25 0 -0 2.25 0 -0 2.25 0 -0 0.00 15 -0 11.24 0 -0 11.24 0 -0 11.24 0 -0 0.00 25 -0 55.01 0 -0 55.01 0 -0 55.01 -4.02 5.60 6.95 -51.86 -32.62 39.27 6.10 -44.9 7.74 5.31 -3.17 -10.74 -13.91 0 -32.12 -17.76 0 12.09 14.33 0 0.00 0.00 0 0.00 -15.00 0 -21.61 0.00 0 -6.92 0.00 0 -3.46 0.00 0 0.00 0.00 0 -15.83 0.00 0 -15.83 0.00 0 -15.83 0.00 0 0.00 15.00 0 -20.57 0.00 0 -20.57 0.00 0 -20.57 0.00 0 0.00 25.00 0 -17.05 0.00 0 -17.05 0.00 0 -17.05 
-116.92 92.64 -31.22 -138.81 -0.99 -8.06 -2.17 -15.67 2.62 -0.00 28.34 -0.00 -9.81 -8.47 7.24 -7.15 -5.50 16.71 -0.00 33.02 -0.00 1.83 -16.38 -9.46 -6.50 17.60 0.36 -1.59 4.36 0.28 -2.58 7.00 0.39 -0.20 -1.94 0.98 -0.19 -5.33 1.74 -17.69 -29.99 23.63 23.48 1.40 -15.41 14.68 -65.35 3.99 -15.52 65.81 3.60 -8.03 10.56 21.10 -61.94 -0 24.87 -13.34 -0 -4.95 -21.77 -0 0.00 0 -0 0.00 -15 -0 3.68 0 -0 6.70 0 -0 3.35 0 -0 0.00 0 -0 2.53 0 -0 2.53 0 -0 2.53 0 -0 0.00 15 -0 11.88 0 -0 11.88 0 -0 11.88 0 -0 0.00 25 -0 55.25 0 -0 55.25 0 -0 55.25 -4.02 4.37 6.17 -51.54 -31.80 39.06 7.27 -47.5 9.13 5.48 -3.65 -10.71 -14.01 0 -32.17 -17.96 0 12.04 14.20 0 0.00 0.00 0 0.00 -15.00 0 -22.10 0.00 0 -7.09 0.00 0 -3.54 0.00 0 0.00 0.00 0 -16.04 0.00 0 -16.04 0.00 0 -16.04 0.00 0 0.00 15.00 0 -20.48 0.00 0 -20.48 0.00 0 -20.48 0.00 0 0.00 25.00 0 -16.84 0.00 0 -16.84 0.00 0 -16.84 
-117.40 92.40 -31.66 -137.64 -1.97 -8.85 -2.96 -14.18 3.25 -0.00 27.91 -0.00 -10.21 -8.33 7.39 -7.71 -4.33 16.97 0.00 32.94 0.00 2.38 -18.01 -9.09 -7.00 18.37 0.77 -1.69 4.55 0.40 -2.72 7.29 0.59 -0.20 -1.97 0.97 -0.19 -5.84 1.81 -17.69 -30.28 23.41 25.13 2.30 -13.99 18.54 -64.89 -0.480003 -15.84 69.2 3.93 -7.39 10.09 23.90 -61.44 -0 25.08 -12.35 -0 -4.74 -24.24 -0 0.00 0 -0 0.00 -15 -0 2.97 0 -0 5.31 0 -0 2.66 0 -0 0.00 0 -0 2.40 0 -0 2.40 0 -0 2.40 0 -0 0.00 15 -0 17.00 0 -0 17.00 0 -0 17.00 0 -0 0.00 25 -0 54.29 0 -0 54.29 0 -0 54.29 -3.55 3.01 4.37 -51.03 -30.70 38.94 8.35 -49.41 10.39 5.42 -3.79 -10.49 -14.06 0 -32.14 -18.07 0 12.07 14.24 0 0.00 0.00 0 0.00 -15.00 0 -22.51 0.00 0 -7.22 0.00 0 -3.61 0.00 0 0.00 0.00 0 -16.07 0.00 0 -16.07 0.00 0 -16.07 0.00 0 0.00 15.00 0 -20.33 0.00 0 -20.33 0.00 0 -20.33 0.00 0 0.00 25.00 0 -16.94 0.00 0 -16.94 0.00 0 -16.94 
-117.91 92.14 -32.05 -137.12 -2.17 -9.03 -3.10 -13.94 3.30 0.00 27.93 -0.00 -10.62 -8.30 7.56 -7.43 -3.95 16.75 -0.00 31.69 -0.00 2.35 -18.47 -8.34 -7.27 18.55 0.87 -1.76 4.60 0.44 -2.81 7.35 0.64 -0.19 -2.01 0.96 -0.18 -6.51 1.91 -17.70 -30.60 23.16 26.66 3.43 -13.34 20.14 -64.69 -2.64 -16.03 72.07 3.99 -7.11 10.22 25.61 -61.05 -0 25.29 -11.56 -0 -4.53 -26.2 -0 0.00 0 -0 0.00 -15 -0 2.55 0 -0 4.57 0 -0 2.28 0 -0 0.00 0 -0 2.02 0 -0 2.02 0 -0 2.02 0 -0 0.00 15 -0 16.46 0 -0 16.46 0 -0 16.46 0 -0 0.00 25 -0 51.21 0 -0 51.21 0 -0 51.21 -2.94 1.52 2.21 -50.53 -29.37 38.81 9.17 -50.69 11.48 5.01 -3.38 -10.24 -14.00 0 -32.08 -17.94 0 12.13 14.30 0 0.00 0.00 0 0.00 -15.00 0 -22.71 0.00 0 -8.36 0.00 0 -4.18 0.00 0 0.00 0.00 0 -16.64 0.00 0 -16.64 0.00 0 -16.64 0.00 0 0.00 15.00 0 -20.32 0.00 0 -20.32 0.00 0 -20.32 0.00 0 0.00 25.00 0 -17.38 0.00 0 -17.38 0.00 0 -17.38 
-118.08 90.94 -31.98 -136.50 -2.45 -9.13 -3.08 -13.61 3.23 0.00 28.17 0.00 -11.23 -8.49 7.89 -7.33 -3.68 16.51 -0.00 31.00 0.00 2.29 -19.45 -7.77 -7.61 18.79 0.92 -1.83 4.66 0.46 -2.93 7.44 0.68 -0.17 -2.05 0.95 -0.17 -7.35 2.02 -17.63 -30.94 22.86 27.90 3.78 -12.90 21.01 -63.76 -3.4 -14.52 74.12 2.29 -7.14 10.49 25.80 -60.83 -0 25.13 -11.11 -0 -4.69 -27.03 -0 0.00 0 -0 0.00 -15 -0 2.58 0 -0 4.32 0 -0 2.16 0 -0 0.00 0 -0 1.85 0 -0 1.85 0 -0 1.85 0 -0 0.00 15 -0 16.34 0 -0 16.34 0 -0 16.34 0 -0 0.00 25 -0 46.75 0 -0 46.75 0 -0 46.75 -2.20 0.23 0.22 -50.02 -28.30 38.66 9.46 -51.2 12.17 4.36 -2.84 -10.04 -13.85 0 -32.08 -17.65 0 12.13 14.24 0 0.00 0.00 0 0.00 -15.00 0 -22.57 0.00 0 -10.31 0.00 0 -5.16 0.00 0 0.00 0.00 0 -17.66 0.00 0 -17.66 0.00 0 -17.66 0.00 0 0.00 15.00 0 -20.23 0.00 0 -20.23 0.00 0 -20.23 0.00 0 0.00 25.00 0 -17.83 0.00 0 -17.83 0.00 0 -17.83 
-118.28 90.66 -31.91 -135.80 -2.69 -9.17 -3.12 -13.30 3.06 0.00 28.41 0.00 -11.85 -8.74 8.30 -7.27 -3.23 16.21 -0.00 30.41 -0.00 2.23 -20.76 -7.34 -8.01 19.01 0.92 -1.93 4.70 0.48 -3.09 7.51 0.70 -0.15 -2.09 0.94 -0.16 -8.21 2.14 -17.52 -31.19 22.63 28.90 3.72 -12.54 22.28 -62.40 -4.03 -11.24 75.09 -1.23 -7.24 10.89 24.72 -60.86 -0 24.34 -11.19 -0 -5.48 -26.61 -0 0.00 0 -0 0.00 -15 -0 2.69 0 -0 4.36 0 -0 2.18 0 -0 0.00 0 -0 2.12 0 -0 2.12 0 -0 2.12 0 -0 0.00 15 -0 16.86 0 -0 16.86 0 -0 16.86 0 -0 0.00 25 -0 43.72 0 -0 43.72 0 -0 43.72 -1.52 -1.18 -1.45 -49.03 -27.37 38.08 9.06 -50.92 12.30 3.50 -2.21 -9.86 -13.64 0 -32.03 -17.24 0 12.19 14.68 0 0.00 0.00 0 0.00 -15.00 0 -22.42 0.00 0 -11.49 0.00 0 -5.75 0.00 0 0.00 0.00 0 -18.38 0.00 0 -18.38 0.00 0 -18.38 0.00 0 0.00 15.00 0 -20.28 0.00 0 -20.28 0.00 0 -20.28 0.00 0 0.00 25.00 0 -18.23 0.00 0 -18.23 0.00 0 -18.23 
-118.55 90.54 -31.64 -134.98 -2.91 -9.26 -2.87 -13.01 2.81 0.00 28.60 0.00 -12.83 -8.90 8.98 -7.36 -2.52 15.89 -0.00 29.40 -0.00 1.76 -21.42 -6.82 -8.06 19.23 0.80 -1.94 4.76 0.45 -3.11 7.58 0.65 -0.16 -2.13 0.95 -0.19 -9.15 2.30 -18.19 -31.08 22.84 29.12 3.23 -11.98 23.63 -61.07 -4.43 -7.64 75.1 -4.88 -7.29 10.97 22.80 -60.98 -0 23.41 -11.43 -0 -6.41 -25.52 -0 0.00 0 -0 0.00 -15 -0 2.79 0 -0 4.60 0 -0 2.30 0 -0 0.00 0 -0 2.60 0 -0 2.60 0 -0 2.60 0 -0 0.00 15 -0 17.96 0 -0 17.96 0 -0 17.96 0 -0 0.00 25 -0 43.62 0 -0 43.62 0 -0 43.62 -1.32 -2.42 -2.32 -47.86 -26.75 37.34 9.23 -53.04 12.49 2.55 1.66 -9.65 -13.43 0 -31.86 -16.82 0 12.35 15.90 0 0.00 0.00 0 0.00 -15.00 0 -22.19 0.00 0 -7.03 0.00 0 -3.51 0.00 0 0.00 0.00 0 -16.18 0.00 0 -16.18 0.00 0 -16.18 0.00 0 0.00 15.00 0 -20.45 0.00 0 -20.45 0.00 0 -20.45 0.00 0 0.00 25.00 0 -16.81 0.00 0 -16.81 0.00 0 -16.81 
